#!OML:ASF F:\VICON\USERDATA\INSTALL\rory3\rory3.ASF
:FULLY-SPECIFIED
:DEGREES
455
root -0.359671 15.4152 13.5332 14.7754 -70.2471 -40.6547
lowerback -14.1247 -7.84705 7.15478
upperback -10.9692 -11.8212 10.6245
thorax -3.03522 -6.24964 5.96754
lowerneck -1.76566 -13.5739 -15.0004
upperneck 39.3885 -23.3593 -0.337353
head 16.1801 -13.4578 -1.51812
rclavicle 7.31528e-014 1.11319e-014
rhumerus -7.98596 50.8649 -97.8752
rradius 83.0344
rwrist -10.0721
rhand -15.2791 -60.1207
rfingers 7.12502
rthumb -169.104 810.182
lclavicle 7.31528e-014 1.11319e-014
lhumerus 56.5707 15.6603 98.0505
lradius 16.4168
lwrist 19.8119
lhand -34.1179 -15.9655
lfingers 7.12502
lthumb -7.29337 13.8888
rfemur -58.5412 -12.8396 37.5245
rtibia 76.271
rfoot 0.776519 -12.9236
rtoes 17.9194
lfemur -19.3251 39.5542 -23.575
ltibia 106.32
lfoot 14.0538 -21.5099
ltoes -3.29447
456
root -0.366574 15.4293 13.5203 15.4853 -69.6987 -41.7166
lowerback -13.9685 -7.94138 7.70803
upperback -10.8933 -12.0037 10.8662
thorax -3.09091 -6.36289 5.93867
lowerneck -1.72226 -13.4129 -15.4354
upperneck 39.406 -23.1502 -0.0885352
head 16.2784 -13.394 -1.33695
rclavicle 4.77083e-014 -1.59028e-015
rhumerus -7.87083 51.2698 -97.6648
rradius 83.1499
rwrist -10.2971
rhand -14.9678 -60.0872
rfingers 7.12502
rthumb -168.804 810.232
lclavicle 4.77083e-014 -1.59028e-015
lhumerus 57.1409 16.3792 99.6607
lradius 16.1646
lwrist 18.3819
lhand -34.5217 -15.9389
lfingers 7.12502
lthumb -7.68317 13.9015
rfemur -58.0404 -12.9119 38.1507
rtibia 75.9991
rfoot 0.527458 -12.8996
rtoes 18.8653
lfemur -18.762 39.6277 -22.0999
ltibia 106.428
lfoot 14.4313 -21.9402
ltoes -1.65363
457
root -0.371614 15.4344 13.5098 14.8967 -69.3535 -41.2082
lowerback -13.8712 -8.00189 7.65004
upperback -10.9212 -12.065 10.9596
thorax -3.13761 -6.38932 6.07943
lowerneck -1.85839 -13.3749 -15.424
upperneck 39.5913 -23.0542 -0.185461
head 16.3776 -13.3563 -1.38857
rclavicle 1.27222e-014 6.04305e-014
rhumerus -7.938 51.425 -97.5044
rradius 83.334
rwrist -10.4272
rhand -14.9227 -60.3842
rfingers 7.12502
rthumb -168.761 990.063
lclavicle 1.27222e-014 6.04305e-014
lhumerus 57.3048 16.525 100.476
lradius 16.1196
lwrist 17.8775
lhand -34.7886 -16.0853
lfingers 7.12502
lthumb -7.94078 13.7455
rfemur -57.9413 -12.8341 38.1556
rtibia 75.938
rfoot 0.191062 -13.0598
rtoes 20.8811
lfemur -18.6279 39.5642 -21.7964
ltibia 106.422
lfoot 14.72 -21.8073
ltoes -0.827733
458
root -0.378695 15.4222 13.4962 13.9284 -68.9617 -40.2611
lowerback -13.7178 -7.96804 7.29654
upperback -10.9953 -11.9545 10.9678
thorax -3.22968 -6.31731 6.31521
lowerneck -2.12249 -13.4962 -14.9766
upperneck 39.9646 -23.1219 -0.665993
head 16.4785 -13.3725 -1.69474
rclavicle 3.18055e-015 2.54444e-014
rhumerus -8.14291 51.0525 -97.2092
rradius 83.6692
rwrist -10.4161
rhand -15.1662 -60.884
rfingers 7.12502
rthumb -168.996 990.576
lclavicle 3.18055e-015 2.54444e-014
lhumerus 57.3889 16.28 101.42
lradius 16.0263
lwrist 17.1679
lhand -34.8209 -16.3734
lfingers 7.12502
lthumb -7.97194 13.4563
rfemur -58.0022 -12.8192 38.1243
rtibia 75.9579
rfoot 0.497123 -13.05
rtoes 20.3474
lfemur -18.6098 39.4633 -21.8212
ltibia 106.427
lfoot 14.5691 -21.6646
ltoes -1.63944
459
root -0.389176 15.4088 13.4872 13.0798 -68.5381 -39.4609
lowerback -13.6084 -8.04859 7.05341
upperback -11.0446 -12.0213 11.0714
thorax -3.26433 -6.33715 6.56446
lowerneck -2.42739 -13.542 -14.4418
upperneck 40.2363 -22.9231 -1.38126
head 16.4528 -13.2949 -2.04157
rclavicle 3.18055e-015 -1.00187e-013
rhumerus -8.28346 51.1271 -96.9438
rradius 84.0183
rwrist -10.3655
rhand -14.6223 -61.1624
rfingers 7.12502
rthumb -168.471 990.825
lclavicle 3.18055e-015 -1.00187e-013
lhumerus 57.6805 16.5569 102.564
lradius 15.8753
lwrist 16.0904
lhand -34.8576 -16.5956
lfingers 7.12502
lthumb -8.0073 13.2327
rfemur -58.0552 -12.9397 38.2105
rtibia 76.0088
rfoot 1.17804 -12.7994
rtoes 17.768
lfemur -18.6259 39.2565 -21.8107
ltibia 106.477
lfoot 14.2386 -21.3997
ltoes -2.53766
460
root -0.398165 15.4033 13.4843 11.9273 -68.2804 -38.3448
lowerback -13.5724 -8.18864 6.91935
upperback -11.0571 -12.1833 11.1161
thorax -3.2486 -6.40853 6.66715
lowerneck -2.26026 -13.3533 -15.0314
upperneck 40.1704 -22.788 -0.853918
head 16.5641 -13.2533 -1.73058
rclavicle -3.49861e-014 -1.08139e-013
rhumerus -8.45152 51.5765 -97.0111
rradius 84.1819
rwrist -10.1815
rhand -13.6838 -61.0684
rfingers 7.12502
rthumb -167.566 990.679
lclavicle -3.49861e-014 -1.08139e-013
lhumerus 57.9414 17.0439 103.236
lradius 15.7658
lwrist 15.3498
lhand -35.174 -16.7248
lfingers 7.12502
lthumb -8.31266 13.0917
rfemur -58.0916 -12.9875 38.0806
rtibia 76.096
rfoot 1.57968 -12.5651
rtoes 16.0077
lfemur -18.5588 39.124 -22.0184
ltibia 106.448
lfoot 13.6734 -21.2885
ltoes -3.96223
461
root -0.403953 15.4042 13.4824 11.423 -67.9867 -37.9663
lowerback -13.4993 -8.16746 7.04642
upperback -11.04 -12.1525 11.0987
thorax -3.30221 -6.39686 6.59946
lowerneck -2.15954 -13.2742 -15.2206
upperneck 40.2121 -22.7857 -0.571921
head 16.6468 -13.2445 -1.59507
rclavicle -3.49861e-014 1.1609e-013
rhumerus -8.59399 51.5556 -96.9922
rradius 84.3204
rwrist -10.1887
rhand -13.6048 -60.9603
rfingers 7.12502
rthumb -167.49 990.566
lclavicle -3.49861e-014 1.1609e-013
lhumerus 58.3481 17.3685 104.46
lradius 15.4966
lwrist 14.1986
lhand -35.2811 -16.7872
lfingers 7.12502
lthumb -8.41606 13.0252
rfemur -57.9679 -12.9278 38.1365
rtibia 76.1221
rfoot 1.45803 -12.5185
rtoes 16.6086
lfemur -18.288 39.2187 -21.7281
ltibia 106.39
lfoot 12.9708 -21.5531
ltoes -5.67508
